<?xml version="1.0" encoding="UTF-8"?>
<svg width="14px" height="20px" viewBox="0 0 14 20" version="1.1" xmlns="http://www.w3.org/2000/svg" xmlns:xlink="http://www.w3.org/1999/xlink">
    <!-- Generator: Sketch 57.1 (83088) - https://sketch.com -->
    <title>map-marker</title>
    <desc>Created with Sketch.</desc>
    <g id="Page-1" stroke="none" stroke-width="1" fill="none" fill-rule="evenodd">
        <g id="map-marker">
            <path d="M7,19.7428611 C7.04930086,19.6737706 7.10897633,19.5897419 7.17825173,19.4916394 C7.41705442,19.1534655 7.68319366,18.7704298 7.96982867,18.3501682 C8.78878757,17.1494185 9.6077354,15.8912807 10.3719004,14.6369584 C10.8074589,13.9220203 11.2130084,13.2278714 11.5828086,12.5609523 C13.0293619,9.9521546 13.85,7.90777982 13.85,6.67 C13.85,3.07519384 10.7794549,0.15 7,0.15 C3.21037181,0.15 0.15,3.06535913 0.15,6.67 C0.15,7.90777982 0.970638149,9.9521546 2.41719141,12.5609523 C2.78699165,13.2278714 3.19254114,13.9220203 3.62809963,14.6369584 C4.3922646,15.8912807 5.21121243,17.1494185 6.03017133,18.3501682 C6.31680634,18.7704298 6.58294558,19.1534655 6.82174827,19.4916394 C6.89102367,19.5897419 6.95069914,19.6737706 7,19.7428611 Z M7,3.85 C8.74284271,3.85 10.15,5.25715729 10.15,7 C10.15,8.74284271 8.74284271,10.15 7,10.15 C5.25715729,10.15 3.85,8.74284271 3.85,7 C3.85,5.25715729 5.25715729,3.85 7,3.85 Z" id="Shape" stroke-opacity="0.713095498" stroke="#425663" stroke-width="0.3" fill="#425663" fill-rule="nonzero"></path>
            <circle id="Oval" fill="#FFFFFF" cx="7" cy="7" r="3"></circle>
        </g>
    </g>
</svg>